<svg class="header__logo__img" version="1.1" id="Layer_1" xmlns="http://www.w3.org/2000/svg" xmlns:xlink="http://www.w3.org/1999/xlink" x="0px" y="0px"
	 viewBox="0 0 743.9 221.4" style="enable-background:new 0 0 743.9 221.4;" xml:space="preserve">
<style type="text/css">
	.st0{fill:#BF0000;}
</style>
<polygon class="st0" points="598.9,185.6 148.8,185.6 184.7,221.4 "/>
<path class="st0" d="M190.5,40.6V46c-8.4-5.3-15.9-8.4-26.1-8.4c-31.5,0-55.5,28.8-55.5,64.1s24,64.1,55.5,64.1
	c10.3,0,17.8-3.1,26.1-8.4v5.4h27.7V40.6H190.5z M164.4,136.3c-15.5,0-26.9-15.3-26.9-34.7c0-19.3,11.4-34.6,26.9-34.6
	c15.6,0,26.5,15.3,26.5,34.6C190.9,121,179.9,136.3,164.4,136.3"/>
<path class="st0" d="M412.5,40.6v71.7c0,13.5-9.2,24.8-22.7,24.8s-22.7-11.4-22.7-24.8V40.6h-27.7v71.7c0,29.4,20.1,53.4,49.6,53.4
	c13.6,0,23.6-7.5,23.6-7.5v4.5h27.7V40.6H412.5z"/>
<path class="st0" d="M670.8,162.7V91c0-13.5,9.2-24.8,22.7-24.8s22.7,11.4,22.7,24.8v71.7h27.7V91c0-29.4-20.1-53.4-49.6-53.4
	c-13.6,0-23.6,7.5-23.6,7.5v-4.5H643v122.1H670.8z"/>
<path class="st0" d="M29,162.7v-47.3h20.5L85,162.7h36.3l-42.9-57.1c13.4-9.6,22.1-25.2,22.1-42.9c0-29-23.6-52.6-52.6-52.6H0v152.6
	L29,162.7L29,162.7z M29,39.1h18.9c13,0,23.7,10.6,23.7,23.6c0,13.1-10.6,23.7-23.7,23.7H29V39.1z"/>
<path class="st0" d="M515,133.8c-2.5,1.7-5.6,3-9.3,3c-4.5,0-13.1-3.5-13.1-15V69.5h23.7v-29h-23.7V10.1h-27.7v30.4h-14.7v29h14.7
	v52.7c0,27.3,20.5,43.6,41.2,43.6c7.7,0,18.4-2.5,27.1-7.7L515,133.8z"/>
<polygon class="st0" points="287.1,97.8 334.7,40.6 295.8,40.6 262.6,83.1 262.6,0 234,0 234,162.7 262.6,162.7 262.6,112.5 
	303.4,162.7 342.3,162.7 "/>
<path class="st0" d="M579,37.5c-32.1,0-55.1,28.2-55.1,64.2c0,37.8,28.9,64.2,57.9,64.2c14.6,0,33.4-5,49.1-27.3l-24.5-14.3
	c-18.9,27.9-50.5,13.7-54.1-14.2h79.8C638.9,66.3,610.5,37.5,579,37.5 M603.2,85.9h-49.9C559.1,57.3,597.8,55.6,603.2,85.9"/>
</svg>
